# xmcd CD database file
#
# Track frame offsets:
#	150
#	17151
#	44072
#	64664
#	84095
#	101772
#	121110
#
# Disc length: 2032 seconds
#
# Revision: 0
# Processed by: cddbd v1.5.2PL0 Copyright (c) Steve Scherf et al.
# Submitted via: CDex 1.70beta2
#
DISCID=5207ee07
DTITLE=Craig Linder - Piano and Memories - Disc 1
DYEAR=2002
DGENRE=New Age
TTITLE0=Here She Comes
TTITLE1=My Broken Heart
TTITLE2=Little Treasure
TTITLE3=Independence Day
TTITLE4=Memories of Love
TTITLE5=Before I Go
TTITLE6=Closure
EXTD=YEAR: 2002
EXTT0=
EXTT1=
EXTT2=
EXTT3=
EXTT4=
EXTT5=
EXTT6=
PLAYORDER=
